# xmcd
#
# Track frame offsets:
#	150
#	23263
#	42890
#	63124
#	81546
#	98521
#	121468
#	143588
#	158429
#	176478
#	197584
#	217574
#	236474
#	260059
#	280188
#	300240
#
# Disc length: 4214 seconds
#
# Revision: 1
# Processed by: cddbd v1.5.1PL0 Copyright (c) Steve Scherf et al.
# Submitted via: EasyCDDAExtractor 7.1.0.1
#
DISCID=bd107410
DTITLE=Amr Diab - ֳֽבל ַבֳַהל
DYEAR=2005
DGENRE=Pop
TTITLE0=זבַ בל ַָבו
TTITLE1=בָל
TTITLE2=דבם דַ
TTITLE3=ַבַבד ַבבו
TTITLE4=ֳהַ ַםװ
TTITLE5=הזׁ ַבםה
TTITLE6=ֳהַ
TTITLE7=ַבםז׃ - ד ַהּםבַ
TTITLE8=דודַ ָׁ
TTITLE9=זום ַדבֹ ֳםו
TTITLE10=דׁםה
TTITLE11=בָם ֳ־ַׁ
TTITLE12=־בםהם ּהָ
TTITLE13=ֳׁ זַֽֿ
TTITLE14=ָֿ ַבבםַבם
TTITLE15=בד בָם
EXTD=
EXTT0=
EXTT1=
EXTT2=
EXTT3=
EXTT4=
EXTT5=
EXTT6=
EXTT7=
EXTT8=
EXTT9=
EXTT10=
EXTT11=
EXTT12=
EXTT13=
EXTT14=
EXTT15=
PLAYORDER=
